<?xml version="1.0" encoding="utf-8"?>
<!-- Generator: Adobe Illustrator 17.1.0, SVG Export Plug-In . SVG Version: 6.00 Build 0)  -->
<!DOCTYPE svg PUBLIC "-//W3C//DTD SVG 1.1//EN" "http://www.w3.org/Graphics/SVG/1.1/DTD/svg11.dtd">
<svg version="1.1" xmlns="http://www.w3.org/2000/svg" xmlns:xlink="http://www.w3.org/1999/xlink" x="0px" y="0px"
	 viewBox="0 0 64 64" enable-background="new 0 0 64 64" xml:space="preserve">
<g id="guide" display="none">
</g>
<g id="flat" display="none">
	<g id="spaceship_1_" display="inline">
		<path fill="#3EBBDD" d="M56,20c-2.206,0-4-1.794-4-4s1.794-4,4-4s4,1.794,4,4S58.206,20,56,20z M56,14c-1.103,0-2,0.897-2,2
			s0.897,2,2,2s2-0.897,2-2S57.103,14,56,14z"/>
		<path fill="#3EBBDD" d="M49,59c-1.654,0-3-1.346-3-3s1.346-3,3-3s3,1.346,3,3S50.654,59,49,59z M49,55c-0.551,0-1,0.448-1,1
			s0.449,1,1,1s1-0.448,1-1S49.551,55,49,55z"/>
		<path fill="#3EBBDD" d="M10,11c-1.654,0-3-1.346-3-3s1.346-3,3-3s3,1.346,3,3S11.654,11,10,11z M10,7C9.449,7,9,7.448,9,8
			s0.449,1,1,1s1-0.448,1-1S10.551,7,10,7z"/>
		<path fill="#3EBBDD" d="M12,54c-2.206,0-4-1.794-4-4s1.794-4,4-4s4,1.794,4,4S14.206,54,12,54z M12,48c-1.103,0-2,0.897-2,2
			s0.897,2,2,2s2-0.897,2-2S13.103,48,12,48z"/>
		<g>
			<path fill="#FF8000" d="M5,26c-0.552,0-1-0.447-1-1v-4c0-0.553,0.448-1,1-1s1,0.447,1,1v4C6,25.553,5.552,26,5,26z"/>
			<path fill="#FF8000" d="M7,24H3c-0.552,0-1-0.447-1-1s0.448-1,1-1h4c0.552,0,1,0.447,1,1S7.552,24,7,24z"/>
		</g>
		<g>
			<path fill="#FF8000" d="M59,42c-0.552,0-1-0.447-1-1v-4c0-0.553,0.448-1,1-1s1,0.447,1,1v4C60,41.553,59.552,42,59,42z"/>
			<path fill="#FF8000" d="M61,40h-4c-0.552,0-1-0.447-1-1s0.448-1,1-1h4c0.552,0,1,0.447,1,1S61.552,40,61,40z"/>
		</g>
		<g>
			<path fill="#3EBBDD" d="M24.296,29.071c-0.359-0.119-0.775-0.006-1.043,0.262C20.51,32.075,19,35.722,19,39.601V43
				c0,0.421,0.264,0.797,0.66,0.94C19.771,43.98,19.886,44,20,44c0.291,0,0.575-0.127,0.768-0.359l5-6
				c0.181-0.218,0.262-0.502,0.222-0.782l-1-7C24.937,29.483,24.656,29.191,24.296,29.071z"/>
			<path fill="#3EBBDD" d="M40.707,29.293c-0.268-0.268-0.664-0.363-1.023-0.241c-0.359,0.119-0.62,0.432-0.673,0.807l-1,7
				c-0.04,0.28,0.041,0.564,0.222,0.782l5,6C43.426,43.873,43.709,44,44,44c0.114,0,0.229-0.02,0.34-0.06
				C44.736,43.797,45,43.421,45,43v-3.399C45,35.722,43.49,32.075,40.707,29.293z"/>
			<path fill="#CCCCCC" d="M32.583,2.188c-0.349-0.25-0.818-0.25-1.167,0C31.073,2.435,23,8.389,23,22
				c0,6.383,0.843,13.576,2.256,19.242C25.367,41.688,25.768,42,26.227,42h11.547c0.459,0,0.859-0.313,0.97-0.758
				C40.157,35.576,41,28.383,41,22C41,8.389,32.927,2.435,32.583,2.188z"/>
			<path fill="#3EBBDD" d="M32.583,2.188c-0.349-0.25-0.818-0.25-1.167,0c-0.243,0.175-4.35,3.227-6.734,9.813h14.635
				C36.933,5.415,32.826,2.362,32.583,2.188z"/>
			<path fill="#4D4D4D" d="M24.357,37c0.266,1.477,0.565,2.905,0.899,4.242C25.367,41.688,25.768,42,26.227,42h11.547
				c0.459,0,0.859-0.313,0.97-0.758c0.334-1.338,0.633-2.765,0.899-4.242H24.357z"/>
			<circle fill="#FFFFFF" cx="32" cy="20" r="4"/>
			<path fill="#3EBBDD" d="M32,25c-2.757,0-5-2.243-5-5s2.243-5,5-5s5,2.243,5,5S34.757,25,32,25z M32,17c-1.654,0-3,1.346-3,3
				s1.346,3,3,3s3-1.346,3-3S33.654,17,32,17z"/>
			<rect x="31" y="19" fill="#4D4D4D" width="2" height="2"/>
			<rect x="31" y="27" fill="#4D4D4D" width="2" height="2"/>
			<path fill="#3EBBDD" d="M32,44c-0.552,0-1-0.447-1-1V32c0-0.553,0.448-1,1-1s1,0.447,1,1v11C33,43.553,32.552,44,32,44z"/>
		</g>
		<rect x="27" y="56" fill="#CCCCCC" width="2" height="6"/>
		<rect x="27" y="52" fill="#CCCCCC" width="2" height="1.999"/>
		<rect x="27" y="44" fill="#CCCCCC" width="2" height="6"/>
		<rect x="35" y="60" fill="#CCCCCC" width="2" height="2"/>
		<rect x="35" y="56" fill="#CCCCCC" width="2" height="2"/>
		<rect x="35" y="44" fill="#CCCCCC" width="2" height="10"/>
		<rect x="31" y="46" fill="#CCCCCC" width="2" height="2"/>
		<rect x="31" y="58" fill="#CCCCCC" width="2" height="2"/>
		<rect x="31" y="54" fill="#CCCCCC" width="2" height="2"/>
		<rect x="31" y="50" fill="#CCCCCC" width="2" height="2"/>
		<rect x="51" y="27" fill="#CCCCCC" width="2" height="2"/>
		<rect x="14" y="17" fill="#CCCCCC" width="2" height="2"/>
		<rect x="46" y="5" fill="#CCCCCC" width="2" height="2"/>
		<rect x="53" y="47" fill="#CCCCCC" width="2" height="2"/>
		<rect x="9" y="34" fill="#CCCCCC" width="2" height="2"/>
	</g>
</g>
<g id="fill_outline">
	<g id="spaceship">
		<path d="M56,20c-2.206,0-4-1.794-4-4s1.794-4,4-4s4,1.794,4,4S58.206,20,56,20z M56,14c-1.103,0-2,0.897-2,2s0.897,2,2,2
			s2-0.897,2-2S57.103,14,56,14z"/>
		<path d="M49,59c-1.654,0-3-1.346-3-3s1.346-3,3-3s3,1.346,3,3S50.654,59,49,59z M49,55c-0.551,0-1,0.448-1,1s0.449,1,1,1
			s1-0.448,1-1S49.551,55,49,55z"/>
		<path d="M10,11c-1.654,0-3-1.346-3-3s1.346-3,3-3s3,1.346,3,3S11.654,11,10,11z M10,7C9.449,7,9,7.448,9,8s0.449,1,1,1
			s1-0.448,1-1S10.551,7,10,7z"/>
		<path d="M12,54c-2.206,0-4-1.794-4-4s1.794-4,4-4s4,1.794,4,4S14.206,54,12,54z M12,48c-1.103,0-2,0.897-2,2s0.897,2,2,2
			s2-0.897,2-2S13.103,48,12,48z"/>
		<g>
			<path d="M5,26c-0.552,0-1-0.447-1-1v-4c0-0.553,0.448-1,1-1s1,0.447,1,1v4C6,25.553,5.552,26,5,26z"/>
			<path d="M7,24H3c-0.552,0-1-0.447-1-1s0.448-1,1-1h4c0.552,0,1,0.447,1,1S7.552,24,7,24z"/>
		</g>
		<g>
			<path d="M59,42c-0.552,0-1-0.447-1-1v-4c0-0.553,0.448-1,1-1s1,0.447,1,1v4C60,41.553,59.552,42,59,42z"/>
			<path d="M61,40h-4c-0.552,0-1-0.447-1-1s0.448-1,1-1h4c0.552,0,1,0.447,1,1S61.552,40,61,40z"/>
		</g>
		<rect x="27" y="56" width="2" height="6"/>
		<rect x="27" y="52" width="2" height="1.999"/>
		<rect x="27" y="44" width="2" height="6"/>
		<rect x="35" y="60" width="2" height="2"/>
		<rect x="35" y="56" width="2" height="2"/>
		<rect x="35" y="44" width="2" height="10"/>
		<rect x="31" y="46" width="2" height="2"/>
		<rect x="31" y="58" width="2" height="2"/>
		<rect x="31" y="54" width="2" height="2"/>
		<rect x="31" y="50" width="2" height="2"/>
		<rect x="51" y="27" width="2" height="2"/>
		<rect x="14" y="17" width="2" height="2"/>
		<g>
			<g>
				<path fill="#4D4D4D" d="M25,37l-5,6v-3.4c0-3.586,1.424-7.025,3.96-9.56L24,30L25,37z"/>
				<path d="M20,44c-0.114,0-0.229-0.02-0.34-0.06C19.264,43.797,19,43.421,19,43v-3.399c0-3.879,1.51-7.525,4.253-10.268
					c0.268-0.268,0.684-0.381,1.043-0.262c0.359,0.12,0.64,0.412,0.693,0.787l1,7c0.04,0.28-0.041,0.564-0.222,0.782l-5,6
					C20.575,43.873,20.291,44,20,44z M23.324,32.337C21.807,34.459,21,36.968,21,39.601v0.638l2.947-3.537L23.324,32.337z"/>
			</g>
			<g>
				<path fill="#4D4D4D" d="M40.04,30.04L39,37l5,6v-3.4C44,36.014,42.576,32.576,40.04,30.04L40,30"/>
				<path d="M44,44c-0.291,0-0.574-0.127-0.768-0.359l-5-6c-0.183-0.22-0.263-0.506-0.221-0.788l1.04-6.96l0.922,0.138L40,30
					l0.707-0.707C43.49,32.075,45,35.722,45,39.601V43c0,0.421-0.264,0.797-0.66,0.94C44.229,43.98,44.114,44,44,44z M40.055,36.704
					L43,40.238v-0.638c0-2.629-0.804-5.134-2.296-7.233L40.055,36.704z"/>
			</g>
			<path fill="#FFFFFF" d="M40,22c0-13.255-8-19-8-19s-8,5.745-8,19c0,6.445,0.848,13.474,2.226,19h11.547
				C39.152,35.474,40,28.445,40,22z"/>
			<path fill="#FF8000" d="M40,22c0-4.007-0.737-7.317-1.757-10H25.757C24.737,14.683,24,17.993,24,22
				c0,4.974,0.509,10.289,1.374,15h13.253C39.491,32.289,40,26.974,40,22z"/>
			<path d="M37.773,42H26.227c-0.459,0-0.859-0.313-0.97-0.758C23.843,35.576,23,28.383,23,22c0-13.611,8.073-19.565,8.417-19.813
				c0.349-0.25,0.818-0.25,1.167,0C32.927,2.435,41,8.389,41,22c0,6.383-0.843,13.576-2.256,19.242
				C38.633,41.688,38.232,42,37.773,42z M27.014,40h9.973C38.251,34.608,39,27.946,39,22c0-10.501-5.218-16.097-6.998-17.698
				C30.228,5.91,25,11.54,25,22C25,27.946,25.749,34.608,27.014,40z"/>
			<rect x="26" y="11" width="12" height="2"/>
			<rect x="25" y="36" width="14" height="2"/>
			<g>
				<circle fill="#FFFFFF" cx="32" cy="20" r="4"/>
				<path d="M32,25c-2.757,0-5-2.243-5-5s2.243-5,5-5s5,2.243,5,5S34.757,25,32,25z M32,17c-1.654,0-3,1.346-3,3s1.346,3,3,3
					s3-1.346,3-3S33.654,17,32,17z"/>
			</g>
			<rect x="31" y="19" width="2" height="2"/>
			<rect x="31" y="27" width="2" height="2"/>
			<path d="M32,44c-0.552,0-1-0.447-1-1V32c0-0.553,0.448-1,1-1s1,0.447,1,1v11C33,43.553,32.552,44,32,44z"/>
			<rect x="46" y="5" width="2" height="2"/>
		</g>
		<rect x="53" y="47" width="2" height="2"/>
		<rect x="9" y="34" width="2" height="2"/>
	</g>
</g>
<g id="outline__x28_Expand_x29_" display="none">
	<g id="rocket_1_" display="inline">
		<path d="M56,20c-2.206,0-4-1.794-4-4s1.794-4,4-4s4,1.794,4,4S58.206,20,56,20z M56,14c-1.103,0-2,0.897-2,2s0.897,2,2,2
			s2-0.897,2-2S57.103,14,56,14z"/>
		<path d="M49,59c-1.654,0-3-1.346-3-3s1.346-3,3-3s3,1.346,3,3S50.654,59,49,59z M49,55c-0.551,0-1,0.448-1,1s0.449,1,1,1
			s1-0.448,1-1S49.551,55,49,55z"/>
		<path d="M10,11c-1.654,0-3-1.346-3-3s1.346-3,3-3s3,1.346,3,3S11.654,11,10,11z M10,7C9.449,7,9,7.448,9,8s0.449,1,1,1
			s1-0.448,1-1S10.551,7,10,7z"/>
		<path d="M12,54c-2.206,0-4-1.794-4-4s1.794-4,4-4s4,1.794,4,4S14.206,54,12,54z M12,48c-1.103,0-2,0.897-2,2s0.897,2,2,2
			s2-0.897,2-2S13.103,48,12,48z"/>
		<g>
			<path d="M5,26c-0.552,0-1-0.447-1-1v-4c0-0.553,0.448-1,1-1s1,0.447,1,1v4C6,25.553,5.552,26,5,26z"/>
			<path d="M7,24H3c-0.552,0-1-0.447-1-1s0.448-1,1-1h4c0.552,0,1,0.447,1,1S7.552,24,7,24z"/>
		</g>
		<g>
			<path d="M59,42c-0.552,0-1-0.447-1-1v-4c0-0.553,0.448-1,1-1s1,0.447,1,1v4C60,41.553,59.552,42,59,42z"/>
			<path d="M61,40h-4c-0.552,0-1-0.447-1-1s0.448-1,1-1h4c0.552,0,1,0.447,1,1S61.552,40,61,40z"/>
		</g>
		<g>
			<path d="M37.773,42H26.227c-0.459,0-0.859-0.313-0.97-0.758C23.843,35.576,23,28.383,23,22c0-13.611,8.073-19.565,8.417-19.813
				c0.349-0.25,0.818-0.25,1.167,0C32.927,2.435,41,8.389,41,22c0,6.383-0.843,13.576-2.256,19.242
				C38.633,41.688,38.232,42,37.773,42z M27.014,40h9.973C38.251,34.608,39,27.946,39,22c0-10.501-5.218-16.097-6.998-17.698
				C30.228,5.91,25,11.54,25,22C25,27.946,25.749,34.608,27.014,40z"/>
			<rect x="26" y="11" width="12" height="2"/>
			<rect x="25" y="36" width="14" height="2"/>
			<path d="M32,25c-2.757,0-5-2.243-5-5s2.243-5,5-5s5,2.243,5,5S34.757,25,32,25z M32,17c-1.654,0-3,1.346-3,3s1.346,3,3,3
				s3-1.346,3-3S33.654,17,32,17z"/>
			<rect x="31" y="19" width="2" height="2"/>
			<rect x="31" y="27" width="2" height="2"/>
			<path d="M32,44c-0.552,0-1-0.447-1-1V32c0-0.553,0.448-1,1-1s1,0.447,1,1v11C33,43.553,32.552,44,32,44z"/>
			<path d="M20,44c-0.114,0-0.229-0.02-0.34-0.06C19.264,43.797,19,43.421,19,43v-3.399c0-3.879,1.51-7.525,4.253-10.268
				l1.454,1.374l-0.04,0.04C22.302,33.111,21,36.256,21,39.601v0.638l3.232-3.879l1.536,1.281l-5,6C20.575,43.873,20.291,44,20,44z"
				/>
			<path d="M44,44c-0.291,0-0.574-0.127-0.768-0.359l-5-6l1.536-1.281L43,40.238v-0.638c0-3.345-1.302-6.489-3.667-8.854L40,30
				l0.707-0.707l0.04,0.04C43.49,32.075,45,35.722,45,39.601V43c0,0.421-0.264,0.797-0.66,0.94C44.229,43.98,44.114,44,44,44z"/>
		</g>
		<rect x="27" y="56" width="2" height="6"/>
		<rect x="27" y="52" width="2" height="1.999"/>
		<rect x="27" y="44" width="2" height="6"/>
		<rect x="35" y="60" width="2" height="2"/>
		<rect x="35" y="56" width="2" height="2"/>
		<rect x="35" y="44" width="2" height="10"/>
		<rect x="31" y="46" width="2" height="2"/>
		<rect x="31" y="58" width="2" height="2"/>
		<rect x="31" y="54" width="2" height="2"/>
		<rect x="31" y="50" width="2" height="2"/>
		<rect x="51" y="27" width="2" height="2"/>
		<rect x="14" y="17" width="2" height="2"/>
		<rect x="46" y="5" width="2" height="2"/>
		<rect x="53" y="47" width="2" height="2"/>
		<rect x="9" y="34" width="2" height="2"/>
	</g>
</g>
<g id="outline__x28_Non-Ex_x29_" display="none">
	<g id="rocket" display="inline">
		<circle fill="none" stroke="#000000" stroke-width="2" stroke-linejoin="round" stroke-miterlimit="10" cx="56" cy="16" r="3"/>
		<circle fill="none" stroke="#000000" stroke-width="2" stroke-linejoin="round" stroke-miterlimit="10" cx="49" cy="56" r="2"/>
		<circle fill="none" stroke="#000000" stroke-width="2" stroke-linejoin="round" stroke-miterlimit="10" cx="10" cy="8" r="2"/>
		<circle fill="none" stroke="#000000" stroke-width="2" stroke-linejoin="round" stroke-miterlimit="10" cx="12" cy="50" r="3"/>
		<g>
			
				<line fill="none" stroke="#000000" stroke-width="2" stroke-linecap="round" stroke-miterlimit="10" x1="5" y1="21" x2="5" y2="25"/>
			
				<line fill="none" stroke="#000000" stroke-width="2" stroke-linecap="round" stroke-miterlimit="10" x1="3" y1="23" x2="7" y2="23"/>
		</g>
		<g>
			
				<line fill="none" stroke="#000000" stroke-width="2" stroke-linecap="round" stroke-miterlimit="10" x1="59" y1="37" x2="59" y2="41"/>
			
				<line fill="none" stroke="#000000" stroke-width="2" stroke-linecap="round" stroke-miterlimit="10" x1="57" y1="39" x2="61" y2="39"/>
		</g>
		<g>
			<path fill="none" stroke="#000000" stroke-width="2" stroke-linejoin="round" stroke-miterlimit="10" d="M40,22
				c0-13.255-8-19-8-19s-8,5.745-8,19c0,6.445,0.848,13.474,2.226,19h11.547C39.152,35.474,40,28.445,40,22z"/>
			
				<line fill="none" stroke="#000000" stroke-width="2" stroke-linejoin="round" stroke-miterlimit="10" x1="26" y1="12" x2="38" y2="12"/>
			
				<line fill="none" stroke="#000000" stroke-width="2" stroke-linejoin="round" stroke-miterlimit="10" x1="25" y1="37" x2="39" y2="37"/>
			<circle fill="none" stroke="#000000" stroke-width="2" stroke-linejoin="round" stroke-miterlimit="10" cx="32" cy="20" r="4"/>
			
				<line fill="none" stroke="#000000" stroke-width="2" stroke-linejoin="round" stroke-miterlimit="10" x1="31" y1="20" x2="33" y2="20"/>
			
				<line fill="none" stroke="#000000" stroke-width="2" stroke-linejoin="round" stroke-miterlimit="10" x1="31" y1="28" x2="33" y2="28"/>
			
				<line fill="none" stroke="#000000" stroke-width="2" stroke-linecap="round" stroke-miterlimit="10" x1="32" y1="32" x2="32" y2="43"/>
			<path fill="none" stroke="#000000" stroke-width="2" stroke-linejoin="round" stroke-miterlimit="10" d="M24,30l-0.04,0.04
				C21.424,32.576,20,36.014,20,39.6V43l5-6"/>
			<path fill="none" stroke="#000000" stroke-width="2" stroke-linejoin="round" stroke-miterlimit="10" d="M40,30l0.04,0.04
				C42.576,32.576,44,36.014,44,39.6V43l-5-6"/>
		</g>
		
			<line fill="none" stroke="#000000" stroke-width="2" stroke-linejoin="round" stroke-miterlimit="10" x1="28" y1="56" x2="28" y2="62"/>
		
			<line fill="none" stroke="#000000" stroke-width="2" stroke-linejoin="round" stroke-miterlimit="10" x1="28" y1="52" x2="28" y2="53.999"/>
		
			<line fill="none" stroke="#000000" stroke-width="2" stroke-linejoin="round" stroke-miterlimit="10" x1="28" y1="44" x2="28" y2="50"/>
		
			<line fill="none" stroke="#000000" stroke-width="2" stroke-linejoin="round" stroke-miterlimit="10" x1="36" y1="60" x2="36" y2="62"/>
		
			<line fill="none" stroke="#000000" stroke-width="2" stroke-linejoin="round" stroke-miterlimit="10" x1="36" y1="56" x2="36" y2="58"/>
		
			<line fill="none" stroke="#000000" stroke-width="2" stroke-linejoin="round" stroke-miterlimit="10" x1="36" y1="44" x2="36" y2="54"/>
		
			<line fill="none" stroke="#000000" stroke-width="2" stroke-linejoin="round" stroke-miterlimit="10" x1="32" y1="46" x2="32" y2="48"/>
		
			<line fill="none" stroke="#000000" stroke-width="2" stroke-linejoin="round" stroke-miterlimit="10" x1="32" y1="58" x2="32" y2="60"/>
		
			<line fill="none" stroke="#000000" stroke-width="2" stroke-linejoin="round" stroke-miterlimit="10" x1="32" y1="54" x2="32" y2="56"/>
		
			<line fill="none" stroke="#000000" stroke-width="2" stroke-linejoin="round" stroke-miterlimit="10" x1="32" y1="50" x2="32" y2="52"/>
		
			<line fill="none" stroke="#000000" stroke-width="2" stroke-linejoin="round" stroke-miterlimit="10" x1="51" y1="28" x2="53" y2="28"/>
		
			<line fill="none" stroke="#000000" stroke-width="2" stroke-linejoin="round" stroke-miterlimit="10" x1="14" y1="18" x2="16" y2="18"/>
		
			<line fill="none" stroke="#000000" stroke-width="2" stroke-linejoin="round" stroke-miterlimit="10" x1="46" y1="6" x2="48" y2="6"/>
		
			<line fill="none" stroke="#000000" stroke-width="2" stroke-linejoin="round" stroke-miterlimit="10" x1="53" y1="48" x2="55" y2="48"/>
		
			<line fill="none" stroke="#000000" stroke-width="2" stroke-linejoin="round" stroke-miterlimit="10" x1="9" y1="35" x2="11" y2="35"/>
	</g>
</g>
<g id="tag" display="none">
</g>
</svg>
